HIERARCHY
ROOT hip
{
	OFFSET 0.000000 0.000000 0.000000 
	CHANNELS 6 Xposition Yposition Zposition Xrotation Zrotation Yrotation
	JOINT abdomen
	{
		OFFSET 0.000000 3.402643 0.000000 
		CHANNELS 3 Xrotation Zrotation Yrotation
		JOINT chest
		{
			OFFSET 0.000000 8.438565 -0.680529 
			CHANNELS 3 Xrotation Zrotation Yrotation
			JOINT neck
			{
				OFFSET 0.000000 10.207942 -0.272212 
				CHANNELS 3 Xrotation Zrotation Yrotation
				JOINT head
				{
					OFFSET 0.000000 3.130431 0.000000 
					CHANNELS 3 Xrotation Zrotation Yrotation
					End Site
					{
						OFFSET 0.000000 3.130435 0.000000 
					}
				}
			}
			JOINT lCollar
			{
				OFFSET 3.470700 6.669187 -0.816635 
				CHANNELS 3 Yrotation Zrotation Xrotation
				JOINT lShldr
				{
					OFFSET 3.198488 0.000000 0.000000 
					CHANNELS 3 Zrotation Yrotation Xrotation
					JOINT lForeArm
					{
						OFFSET 10.139888 0.000000 0.000000 
						CHANNELS 3 Yrotation Zrotation Xrotation
						JOINT lHand
						{
							OFFSET 8.370511 0.000000 0.000000 
							CHANNELS 3 Zrotation Yrotation Xrotation
							End Site
							{
								OFFSET 4.083176 0.000000 0.000000 
							}
						}
					}
				}
			}
			JOINT rCollar
			{
				OFFSET -3.470700 6.669187 -0.816635 
				CHANNELS 3 Yrotation Zrotation Xrotation
				JOINT rShldr
				{
					OFFSET -3.198488 0.000000 0.000000 
					CHANNELS 3 Zrotation Yrotation Xrotation
					JOINT rForeArm
					{
						OFFSET -10.139888 0.000000 0.000000 
						CHANNELS 3 Yrotation Zrotation Xrotation
						JOINT rHand
						{
							OFFSET -8.370511 0.000000 0.000000 
							CHANNELS 3 Zrotation Yrotation Xrotation
							End Site
							{
								OFFSET -4.083176 0.000000 0.000000 
							}
						}
					}
				}
			}
		}
	}
	JOINT lThigh
	{
		OFFSET 5.308129 -1.633274 1.361059 
		CHANNELS 3 Xrotation Zrotation Yrotation
		JOINT lShin
		{
			OFFSET -2.041588 -20.007561 0.000000 
			CHANNELS 3 Xrotation Zrotation Yrotation
			JOINT lFoot
			{
				OFFSET 0.000000 -19.190928 -1.224953 
				CHANNELS 3 Xrotation Yrotation Zrotation
				End Site
				{
					OFFSET 0.000000 -2.449906 4.627600 
				}
			}
		}
	}
	JOINT rThigh
	{
		OFFSET -5.308129 -1.633274 1.361059 
		CHANNELS 3 Xrotation Zrotation Yrotation
		JOINT rShin
		{
			OFFSET 2.041588 -20.007561 0.000000 
			CHANNELS 3 Xrotation Zrotation Yrotation
			JOINT rFoot
			{
				OFFSET 0.000000 -19.190928 -1.224953 
				CHANNELS 3 Xrotation Yrotation Zrotation
				End Site
				{
					OFFSET 0.000000 -2.449906 4.627600 
				}
			}
		}
	}
}
MOTION
Frames: 8
Frame Time: 0.016667
63.336800 31.164644 74.086334 31.325733 -2.240821 -3.928884 41.035297 -6.106736 -2.662622 -2.102990 3.367535 1.770835 -15.524322 0.009286 18.027346 -28.196878 -10.476987 24.466484 1.575127 2.097464 -0.078401 -43.924969 -30.775324 -46.661942 -109.436363 4.501949 63.837681 15.845745 33.039173 8.931767 3.290158 -7.758398 -0.078600 57.354794 15.470800 -45.973129 100.960678 -3.258651 38.745922 -39.504875 -19.895615 15.439926 -107.951195 35.583153 -7.376746 93.152863 2.245363 -3.895593 2.269340 -18.641964 -11.296686 -89.256508 -45.507030 0.108226 92.758385 -3.554407 3.457166 -1.979463 -7.490721 12.153119 
63.345341 31.040878 74.133621 30.970819 -2.192107 -3.928881 41.206726 -6.048721 -2.553731 -2.017819 3.279687 1.770828 -14.660511 -0.371899 17.812870 -28.628487 -10.209285 24.115440 1.575127 2.097464 -0.078401 -44.125984 -30.422640 -46.645100 -109.343582 4.430508 63.579281 16.327923 32.071648 8.892129 3.290036 -7.846287 -0.078599 57.425381 15.369247 -45.791489 100.951088 -3.243446 38.918644 -39.400208 -19.355949 14.960839 -107.859665 35.536655 -7.423788 93.494812 2.313679 -3.828779 2.018799 -18.620689 -11.432445 -89.310883 -45.504543 0.746728 93.031662 -3.280919 3.480243 -2.127762 -7.386928 11.905847 
63.353893 30.917252 74.180908 30.615906 -2.143394 -3.928874 41.387722 -5.980918 -2.445870 -1.932649 3.191839 1.770816 -13.790771 -0.744728 17.589403 -29.059519 -9.947900 23.776243 1.575127 2.097464 -0.078401 -44.338123 -30.071934 -46.631668 -109.250511 4.349184 63.318653 16.817705 31.092613 8.859104 3.281507 -7.933605 -0.067594 57.500336 15.263284 -45.615311 100.941055 -3.228408 39.091434 -39.303711 -18.809734 14.492384 -107.742592 35.478004 -7.447347 93.854912 2.411155 -3.769990 1.761358 -18.581181 -11.581285 -89.376831 -45.503197 1.372556 93.323669 -3.027043 3.505476 -2.292532 -7.292395 11.664676 
63.365524 30.836655 74.222954 30.494776 -2.133874 -3.840680 41.557720 -5.893193 -2.425424 -1.837002 3.279528 1.858575 -13.291627 -0.737880 16.974098 -28.799257 -10.207884 23.071220 1.398541 2.010290 -0.058883 -44.740898 -29.828552 -46.627571 -109.086754 4.411125 63.241165 16.994844 29.937292 8.632582 3.193402 -8.109282 -0.067570 57.550629 15.256000 -45.401958 100.924995 -3.293387 39.362411 -39.021919 -18.496790 14.080241 -107.748138 35.447254 -7.663698 94.203033 2.401063 -3.878437 1.870226 -18.368046 -11.553932 -89.393761 -45.497601 1.535722 93.745071 -3.290844 3.473683 -2.291097 -7.328548 11.840185 
63.377163 30.756187 74.264984 30.373312 -2.124370 -3.743090 41.726788 -5.805505 -2.395279 -1.750850 3.367200 1.946886 -12.789784 -0.721551 16.348906 -28.542908 -10.468475 22.363092 1.222342 1.922787 -0.049117 -45.148643 -29.591686 -46.621246 -108.924789 4.469527 63.172199 17.184839 28.769382 8.414607 3.115063 -8.284970 -0.068953 57.607285 15.263567 -45.193611 100.901817 -3.360838 39.635296 -38.753651 -18.165005 13.678060 -107.774910 35.407364 -7.870443 94.561287 2.411425 -3.956846 1.976007 -18.172781 -11.533266 -89.422615 -45.516884 1.710813 94.164970 -3.564230 3.475624 -2.295569 -7.358563 12.017435 
63.389771 30.714672 74.298485 30.255928 -2.104810 -3.772364 41.717819 -5.659659 -2.267008 -1.661301 3.542691 2.035212 -12.308700 -0.941891 15.314554 -28.704317 -9.680220 20.956129 1.222580 1.834688 -0.058863 -45.588039 -29.471737 -46.575840 -108.800262 4.443416 63.102493 17.247030 27.651466 8.131739 3.105190 -8.372849 -0.068953 57.477600 15.381530 -44.953354 100.877563 -3.322810 39.978878 -38.513100 -17.791870 13.327921 -107.670326 35.271690 -7.969923 94.642944 2.401145 -3.874650 1.902276 -17.991390 -11.575334 -89.464622 -45.415394 2.094931 94.095978 -3.290687 3.499437 -2.220608 -7.541424 11.862275 
63.402390 30.673254 74.331993 30.138876 -2.085227 -3.811398 41.710449 -5.513723 -2.149415 -1.580974 3.718155 2.124177 -11.817297 -1.154603 14.280287 -28.883183 -8.889432 19.549892 1.222490 1.746798 -0.058851 -46.023968 -29.369719 -46.535988 -108.677666 4.423169 63.044250 17.315395 26.539911 7.862440 3.106533 -8.460211 -0.057871 57.352798 15.495903 -44.721111 100.849503 -3.296914 40.315163 -38.286839 -17.422146 12.992101 -107.551613 35.114788 -8.049603 94.733307 2.410952 -3.800747 1.815769 -17.785563 -11.630332 -89.532265 -45.317417 2.489633 94.017365 -3.036869 3.501879 -2.155201 -7.668039 11.697884 
63.417133 30.659615 74.358673 30.076038 -2.026785 -3.801284 41.714123 -5.425997 -2.119311 -1.392133 4.069476 2.124884 -11.425836 -1.056124 13.019828 -28.958155 -8.184290 17.883068 1.222043 1.571225 -0.049066 -46.729801 -29.170317 -46.180325 -108.591415 4.408088 62.994984 17.353630 25.932234 7.731596 3.016978 -8.636416 -0.068957 57.054581 15.699614 -44.619862 100.761635 -3.331597 40.662628 -38.012077 -16.999756 12.577826 -107.441956 34.928543 -8.119264 94.886383 2.498607 -3.800045 1.892098 -17.622377 -11.534928 -89.558189 -45.311214 2.733391 94.007957 -3.036882 3.492101 -2.160526 -7.528838 11.668187 
